<mxfile host="app.diagrams.net" agent="Mozilla/5.0 (Windows NT 10.0; Win64; x64) AppleWebKit/537.36 (KHTML, like Gecko) Chrome/132.0.0.0 Safari/537.36 OPR/117.0.0.0" version="26.2.14">
  <diagram id="C5RBs43oDa-KdzZeNtuy" name="Page-1">
    <mxGraphModel dx="1299" dy="779" grid="0" gridSize="10" guides="1" tooltips="1" connect="1" arrows="1" fold="1" page="1" pageScale="1" pageWidth="1169" pageHeight="827" math="0" shadow="0">
      <root>
        <mxCell id="WIyWlLk6GJQsqaUBKTNV-0" />
        <mxCell id="WIyWlLk6GJQsqaUBKTNV-1" parent="WIyWlLk6GJQsqaUBKTNV-0" />
        <mxCell id="zkfFHV4jXpPFQw0GAbJ--0" value="Utilisateurs" style="swimlane;fontStyle=2;align=center;verticalAlign=top;childLayout=stackLayout;horizontal=1;startSize=26;horizontalStack=0;resizeParent=1;resizeLast=0;collapsible=1;marginBottom=0;rounded=0;shadow=0;strokeWidth=1;" parent="WIyWlLk6GJQsqaUBKTNV-1" vertex="1">
          <mxGeometry x="238" y="66" width="130" height="276" as="geometry">
            <mxRectangle x="230" y="140" width="160" height="26" as="alternateBounds" />
          </mxGeometry>
        </mxCell>
        <mxCell id="zkfFHV4jXpPFQw0GAbJ--1" value="# ID_UtilisateurÂ " style="text;align=left;verticalAlign=top;spacingLeft=4;spacingRight=4;overflow=hidden;rotatable=0;points=[[0,0.5],[1,0.5]];portConstraint=eastwest;" parent="zkfFHV4jXpPFQw0GAbJ--0" vertex="1">
          <mxGeometry y="26" width="130" height="26" as="geometry" />
        </mxCell>
        <mxCell id="zkfFHV4jXpPFQw0GAbJ--2" value="# Nom" style="text;align=left;verticalAlign=top;spacingLeft=4;spacingRight=4;overflow=hidden;rotatable=0;points=[[0,0.5],[1,0.5]];portConstraint=eastwest;rounded=0;shadow=0;html=0;" parent="zkfFHV4jXpPFQw0GAbJ--0" vertex="1">
          <mxGeometry y="52" width="130" height="26" as="geometry" />
        </mxCell>
        <mxCell id="zkfFHV4jXpPFQw0GAbJ--3" value="# Prenoms" style="text;align=left;verticalAlign=top;spacingLeft=4;spacingRight=4;overflow=hidden;rotatable=0;points=[[0,0.5],[1,0.5]];portConstraint=eastwest;rounded=0;shadow=0;html=0;fillColor=default;textShadow=0;fontColor=default;" parent="zkfFHV4jXpPFQw0GAbJ--0" vertex="1">
          <mxGeometry y="78" width="130" height="26" as="geometry" />
        </mxCell>
        <mxCell id="nRTBxxkqmZJJOvBfr9Is-0" value="#mdp" style="text;align=left;verticalAlign=top;spacingLeft=4;spacingRight=4;overflow=hidden;rotatable=0;points=[[0,0.5],[1,0.5]];portConstraint=eastwest;rounded=0;shadow=0;html=0;fillColor=default;textShadow=0;fontColor=default;" vertex="1" parent="zkfFHV4jXpPFQw0GAbJ--0">
          <mxGeometry y="104" width="130" height="26" as="geometry" />
        </mxCell>
        <mxCell id="nRTBxxkqmZJJOvBfr9Is-1" value="#Adresse" style="text;align=left;verticalAlign=top;spacingLeft=4;spacingRight=4;overflow=hidden;rotatable=0;points=[[0,0.5],[1,0.5]];portConstraint=eastwest;rounded=0;shadow=0;html=0;fillColor=default;textShadow=0;fontColor=default;" vertex="1" parent="zkfFHV4jXpPFQw0GAbJ--0">
          <mxGeometry y="130" width="130" height="26" as="geometry" />
        </mxCell>
        <mxCell id="nRTBxxkqmZJJOvBfr9Is-2" value="#Contact" style="text;align=left;verticalAlign=top;spacingLeft=4;spacingRight=4;overflow=hidden;rotatable=0;points=[[0,0.5],[1,0.5]];portConstraint=eastwest;rounded=0;shadow=0;html=0;fillColor=default;textShadow=0;fontColor=default;" vertex="1" parent="zkfFHV4jXpPFQw0GAbJ--0">
          <mxGeometry y="156" width="130" height="26" as="geometry" />
        </mxCell>
        <mxCell id="nRTBxxkqmZJJOvBfr9Is-3" value="#TypeUtilisateur" style="text;align=left;verticalAlign=top;spacingLeft=4;spacingRight=4;overflow=hidden;rotatable=0;points=[[0,0.5],[1,0.5]];portConstraint=eastwest;rounded=0;shadow=0;html=0;fillColor=default;textShadow=0;fontColor=default;" vertex="1" parent="zkfFHV4jXpPFQw0GAbJ--0">
          <mxGeometry y="182" width="130" height="26" as="geometry" />
        </mxCell>
        <mxCell id="nRTBxxkqmZJJOvBfr9Is-4" value="" style="line;strokeWidth=1;fillColor=none;align=left;verticalAlign=middle;spacingTop=-1;spacingLeft=3;spacingRight=3;rotatable=0;labelPosition=right;points=[];portConstraint=eastwest;strokeColor=inherit;" vertex="1" parent="WIyWlLk6GJQsqaUBKTNV-1">
          <mxGeometry x="238" y="279" width="131" height="8" as="geometry" />
        </mxCell>
        <mxCell id="nRTBxxkqmZJJOvBfr9Is-72" style="edgeStyle=orthogonalEdgeStyle;rounded=0;orthogonalLoop=1;jettySize=auto;html=1;entryX=0.25;entryY=1;entryDx=0;entryDy=0;endArrow=block;endFill=0;strokeWidth=1;" edge="1" parent="WIyWlLk6GJQsqaUBKTNV-1" source="nRTBxxkqmZJJOvBfr9Is-5" target="zkfFHV4jXpPFQw0GAbJ--0">
          <mxGeometry relative="1" as="geometry" />
        </mxCell>
        <mxCell id="nRTBxxkqmZJJOvBfr9Is-96" style="edgeStyle=orthogonalEdgeStyle;rounded=0;orthogonalLoop=1;jettySize=auto;html=1;entryX=-0.015;entryY=-0.065;entryDx=0;entryDy=0;entryPerimeter=0;endArrow=none;startFill=0;" edge="1" parent="WIyWlLk6GJQsqaUBKTNV-1" source="nRTBxxkqmZJJOvBfr9Is-5" target="nRTBxxkqmZJJOvBfr9Is-87">
          <mxGeometry relative="1" as="geometry">
            <Array as="points">
              <mxPoint x="219" y="672" />
              <mxPoint x="994" y="672" />
              <mxPoint x="994" y="508" />
              <mxPoint x="1015" y="508" />
            </Array>
          </mxGeometry>
        </mxCell>
        <mxCell id="nRTBxxkqmZJJOvBfr9Is-5" value="Guide" style="swimlane;fontStyle=2;align=center;verticalAlign=top;childLayout=stackLayout;horizontal=1;startSize=26;horizontalStack=0;resizeParent=1;resizeLast=0;collapsible=1;marginBottom=0;rounded=0;shadow=0;strokeWidth=1;" vertex="1" parent="WIyWlLk6GJQsqaUBKTNV-1">
          <mxGeometry x="154" y="414" width="130" height="147" as="geometry">
            <mxRectangle x="230" y="140" width="160" height="26" as="alternateBounds" />
          </mxGeometry>
        </mxCell>
        <mxCell id="nRTBxxkqmZJJOvBfr9Is-6" value="- ID_Guide" style="text;align=left;verticalAlign=top;spacingLeft=4;spacingRight=4;overflow=hidden;rotatable=0;points=[[0,0.5],[1,0.5]];portConstraint=eastwest;" vertex="1" parent="nRTBxxkqmZJJOvBfr9Is-5">
          <mxGeometry y="26" width="130" height="26" as="geometry" />
        </mxCell>
        <mxCell id="nRTBxxkqmZJJOvBfr9Is-7" value="- ID_Utilisateur" style="text;align=left;verticalAlign=top;spacingLeft=4;spacingRight=4;overflow=hidden;rotatable=0;points=[[0,0.5],[1,0.5]];portConstraint=eastwest;rounded=0;shadow=0;html=0;" vertex="1" parent="nRTBxxkqmZJJOvBfr9Is-5">
          <mxGeometry y="52" width="130" height="26" as="geometry" />
        </mxCell>
        <mxCell id="nRTBxxkqmZJJOvBfr9Is-8" value="- LanguesParlees" style="text;align=left;verticalAlign=top;spacingLeft=4;spacingRight=4;overflow=hidden;rotatable=0;points=[[0,0.5],[1,0.5]];portConstraint=eastwest;rounded=0;shadow=0;html=0;fillColor=default;textShadow=0;fontColor=default;" vertex="1" parent="nRTBxxkqmZJJOvBfr9Is-5">
          <mxGeometry y="78" width="130" height="26" as="geometry" />
        </mxCell>
        <mxCell id="nRTBxxkqmZJJOvBfr9Is-9" value="- AnneeExperience" style="text;align=left;verticalAlign=top;spacingLeft=4;spacingRight=4;overflow=hidden;rotatable=0;points=[[0,0.5],[1,0.5]];portConstraint=eastwest;rounded=0;shadow=0;html=0;fillColor=default;textShadow=0;fontColor=default;" vertex="1" parent="nRTBxxkqmZJJOvBfr9Is-5">
          <mxGeometry y="104" width="130" height="26" as="geometry" />
        </mxCell>
        <mxCell id="nRTBxxkqmZJJOvBfr9Is-73" style="edgeStyle=orthogonalEdgeStyle;rounded=0;orthogonalLoop=1;jettySize=auto;html=1;entryX=0.5;entryY=1;entryDx=0;entryDy=0;endArrow=block;endFill=0;" edge="1" parent="WIyWlLk6GJQsqaUBKTNV-1" source="nRTBxxkqmZJJOvBfr9Is-13" target="zkfFHV4jXpPFQw0GAbJ--0">
          <mxGeometry relative="1" as="geometry" />
        </mxCell>
        <mxCell id="nRTBxxkqmZJJOvBfr9Is-13" value="OrganisateurCulturel" style="swimlane;fontStyle=2;align=center;verticalAlign=top;childLayout=stackLayout;horizontal=1;startSize=26;horizontalStack=0;resizeParent=1;resizeLast=0;collapsible=1;marginBottom=0;rounded=0;shadow=0;strokeWidth=1;" vertex="1" parent="WIyWlLk6GJQsqaUBKTNV-1">
          <mxGeometry x="321" y="414" width="143" height="147" as="geometry">
            <mxRectangle x="230" y="140" width="160" height="26" as="alternateBounds" />
          </mxGeometry>
        </mxCell>
        <mxCell id="nRTBxxkqmZJJOvBfr9Is-14" value="- ID_Organisateur" style="text;align=left;verticalAlign=top;spacingLeft=4;spacingRight=4;overflow=hidden;rotatable=0;points=[[0,0.5],[1,0.5]];portConstraint=eastwest;" vertex="1" parent="nRTBxxkqmZJJOvBfr9Is-13">
          <mxGeometry y="26" width="143" height="26" as="geometry" />
        </mxCell>
        <mxCell id="nRTBxxkqmZJJOvBfr9Is-15" value="- ID_Utilisateur" style="text;align=left;verticalAlign=top;spacingLeft=4;spacingRight=4;overflow=hidden;rotatable=0;points=[[0,0.5],[1,0.5]];portConstraint=eastwest;rounded=0;shadow=0;html=0;" vertex="1" parent="nRTBxxkqmZJJOvBfr9Is-13">
          <mxGeometry y="52" width="143" height="26" as="geometry" />
        </mxCell>
        <mxCell id="nRTBxxkqmZJJOvBfr9Is-16" value="- Organisation" style="text;align=left;verticalAlign=top;spacingLeft=4;spacingRight=4;overflow=hidden;rotatable=0;points=[[0,0.5],[1,0.5]];portConstraint=eastwest;rounded=0;shadow=0;html=0;fillColor=default;textShadow=0;fontColor=default;" vertex="1" parent="nRTBxxkqmZJJOvBfr9Is-13">
          <mxGeometry y="78" width="143" height="26" as="geometry" />
        </mxCell>
        <mxCell id="nRTBxxkqmZJJOvBfr9Is-48" value="Reservation" style="swimlane;fontStyle=2;align=center;verticalAlign=top;childLayout=stackLayout;horizontal=1;startSize=26;horizontalStack=0;resizeParent=1;resizeLast=0;collapsible=1;marginBottom=0;rounded=0;shadow=0;strokeWidth=1;" vertex="1" parent="WIyWlLk6GJQsqaUBKTNV-1">
          <mxGeometry x="585" y="68" width="135" height="202" as="geometry">
            <mxRectangle x="230" y="140" width="160" height="26" as="alternateBounds" />
          </mxGeometry>
        </mxCell>
        <mxCell id="nRTBxxkqmZJJOvBfr9Is-49" value="- ID_Reservation" style="text;align=left;verticalAlign=top;spacingLeft=4;spacingRight=4;overflow=hidden;rotatable=0;points=[[0,0.5],[1,0.5]];portConstraint=eastwest;" vertex="1" parent="nRTBxxkqmZJJOvBfr9Is-48">
          <mxGeometry y="26" width="135" height="26" as="geometry" />
        </mxCell>
        <mxCell id="nRTBxxkqmZJJOvBfr9Is-50" value="- ID_Utilisateur" style="text;align=left;verticalAlign=top;spacingLeft=4;spacingRight=4;overflow=hidden;rotatable=0;points=[[0,0.5],[1,0.5]];portConstraint=eastwest;rounded=0;shadow=0;html=0;" vertex="1" parent="nRTBxxkqmZJJOvBfr9Is-48">
          <mxGeometry y="52" width="135" height="26" as="geometry" />
        </mxCell>
        <mxCell id="nRTBxxkqmZJJOvBfr9Is-52" value="- ID_Visite" style="text;align=left;verticalAlign=top;spacingLeft=4;spacingRight=4;overflow=hidden;rotatable=0;points=[[0,0.5],[1,0.5]];portConstraint=eastwest;rounded=0;shadow=0;html=0;fillColor=default;textShadow=0;fontColor=default;" vertex="1" parent="nRTBxxkqmZJJOvBfr9Is-48">
          <mxGeometry y="78" width="135" height="26" as="geometry" />
        </mxCell>
        <mxCell id="nRTBxxkqmZJJOvBfr9Is-53" value="- DateReservation" style="text;align=left;verticalAlign=top;spacingLeft=4;spacingRight=4;overflow=hidden;rotatable=0;points=[[0,0.5],[1,0.5]];portConstraint=eastwest;rounded=0;shadow=0;html=0;fillColor=default;textShadow=0;fontColor=default;" vertex="1" parent="nRTBxxkqmZJJOvBfr9Is-48">
          <mxGeometry y="104" width="135" height="26" as="geometry" />
        </mxCell>
        <mxCell id="nRTBxxkqmZJJOvBfr9Is-54" value="- Statut" style="text;align=left;verticalAlign=top;spacingLeft=4;spacingRight=4;overflow=hidden;rotatable=0;points=[[0,0.5],[1,0.5]];portConstraint=eastwest;rounded=0;shadow=0;html=0;fillColor=default;textShadow=0;fontColor=default;" vertex="1" parent="nRTBxxkqmZJJOvBfr9Is-48">
          <mxGeometry y="130" width="135" height="26" as="geometry" />
        </mxCell>
        <mxCell id="nRTBxxkqmZJJOvBfr9Is-55" value="Avis" style="swimlane;fontStyle=2;align=center;verticalAlign=top;childLayout=stackLayout;horizontal=1;startSize=26;horizontalStack=0;resizeParent=1;resizeLast=0;collapsible=1;marginBottom=0;rounded=0;shadow=0;strokeWidth=1;" vertex="1" parent="WIyWlLk6GJQsqaUBKTNV-1">
          <mxGeometry x="15" y="153" width="135" height="167" as="geometry">
            <mxRectangle x="230" y="140" width="160" height="26" as="alternateBounds" />
          </mxGeometry>
        </mxCell>
        <mxCell id="nRTBxxkqmZJJOvBfr9Is-56" value="- ID_Avis" style="text;align=left;verticalAlign=top;spacingLeft=4;spacingRight=4;overflow=hidden;rotatable=0;points=[[0,0.5],[1,0.5]];portConstraint=eastwest;" vertex="1" parent="nRTBxxkqmZJJOvBfr9Is-55">
          <mxGeometry y="26" width="135" height="26" as="geometry" />
        </mxCell>
        <mxCell id="nRTBxxkqmZJJOvBfr9Is-57" value="- ID_Utilisateur" style="text;align=left;verticalAlign=top;spacingLeft=4;spacingRight=4;overflow=hidden;rotatable=0;points=[[0,0.5],[1,0.5]];portConstraint=eastwest;rounded=0;shadow=0;html=0;" vertex="1" parent="nRTBxxkqmZJJOvBfr9Is-55">
          <mxGeometry y="52" width="135" height="26" as="geometry" />
        </mxCell>
        <mxCell id="nRTBxxkqmZJJOvBfr9Is-58" value="- Nom" style="text;align=left;verticalAlign=top;spacingLeft=4;spacingRight=4;overflow=hidden;rotatable=0;points=[[0,0.5],[1,0.5]];portConstraint=eastwest;rounded=0;shadow=0;html=0;fillColor=default;textShadow=0;fontColor=default;" vertex="1" parent="nRTBxxkqmZJJOvBfr9Is-55">
          <mxGeometry y="78" width="135" height="26" as="geometry" />
        </mxCell>
        <mxCell id="nRTBxxkqmZJJOvBfr9Is-59" value="- Commentaire" style="text;align=left;verticalAlign=top;spacingLeft=4;spacingRight=4;overflow=hidden;rotatable=0;points=[[0,0.5],[1,0.5]];portConstraint=eastwest;rounded=0;shadow=0;html=0;fillColor=default;textShadow=0;fontColor=default;" vertex="1" parent="nRTBxxkqmZJJOvBfr9Is-55">
          <mxGeometry y="104" width="135" height="26" as="geometry" />
        </mxCell>
        <mxCell id="nRTBxxkqmZJJOvBfr9Is-60" value="- DateAvis" style="text;align=left;verticalAlign=top;spacingLeft=4;spacingRight=4;overflow=hidden;rotatable=0;points=[[0,0.5],[1,0.5]];portConstraint=eastwest;rounded=0;shadow=0;html=0;fillColor=default;textShadow=0;fontColor=default;" vertex="1" parent="nRTBxxkqmZJJOvBfr9Is-55">
          <mxGeometry y="130" width="135" height="26" as="geometry" />
        </mxCell>
        <mxCell id="nRTBxxkqmZJJOvBfr9Is-62" value="Paiement" style="swimlane;fontStyle=2;align=center;verticalAlign=top;childLayout=stackLayout;horizontal=1;startSize=26;horizontalStack=0;resizeParent=1;resizeLast=0;collapsible=1;marginBottom=0;rounded=0;shadow=0;strokeWidth=1;" vertex="1" parent="WIyWlLk6GJQsqaUBKTNV-1">
          <mxGeometry x="593" y="376" width="143" height="213" as="geometry">
            <mxRectangle x="230" y="140" width="160" height="26" as="alternateBounds" />
          </mxGeometry>
        </mxCell>
        <mxCell id="nRTBxxkqmZJJOvBfr9Is-63" value="- ID_Paiement" style="text;align=left;verticalAlign=top;spacingLeft=4;spacingRight=4;overflow=hidden;rotatable=0;points=[[0,0.5],[1,0.5]];portConstraint=eastwest;" vertex="1" parent="nRTBxxkqmZJJOvBfr9Is-62">
          <mxGeometry y="26" width="143" height="26" as="geometry" />
        </mxCell>
        <mxCell id="nRTBxxkqmZJJOvBfr9Is-64" value="- ID_Reservation" style="text;align=left;verticalAlign=top;spacingLeft=4;spacingRight=4;overflow=hidden;rotatable=0;points=[[0,0.5],[1,0.5]];portConstraint=eastwest;rounded=0;shadow=0;html=0;" vertex="1" parent="nRTBxxkqmZJJOvBfr9Is-62">
          <mxGeometry y="52" width="143" height="26" as="geometry" />
        </mxCell>
        <mxCell id="nRTBxxkqmZJJOvBfr9Is-65" value="- Montant" style="text;align=left;verticalAlign=top;spacingLeft=4;spacingRight=4;overflow=hidden;rotatable=0;points=[[0,0.5],[1,0.5]];portConstraint=eastwest;rounded=0;shadow=0;html=0;fillColor=default;textShadow=0;fontColor=default;" vertex="1" parent="nRTBxxkqmZJJOvBfr9Is-62">
          <mxGeometry y="78" width="143" height="26" as="geometry" />
        </mxCell>
        <mxCell id="nRTBxxkqmZJJOvBfr9Is-66" value="- DatePaiement" style="text;align=left;verticalAlign=top;spacingLeft=4;spacingRight=4;overflow=hidden;rotatable=0;points=[[0,0.5],[1,0.5]];portConstraint=eastwest;rounded=0;shadow=0;html=0;fillColor=default;textShadow=0;fontColor=default;" vertex="1" parent="nRTBxxkqmZJJOvBfr9Is-62">
          <mxGeometry y="104" width="143" height="26" as="geometry" />
        </mxCell>
        <mxCell id="nRTBxxkqmZJJOvBfr9Is-67" value="- Statut" style="text;align=left;verticalAlign=top;spacingLeft=4;spacingRight=4;overflow=hidden;rotatable=0;points=[[0,0.5],[1,0.5]];portConstraint=eastwest;rounded=0;shadow=0;html=0;fillColor=default;textShadow=0;fontColor=default;" vertex="1" parent="nRTBxxkqmZJJOvBfr9Is-62">
          <mxGeometry y="130" width="143" height="26" as="geometry" />
        </mxCell>
        <mxCell id="nRTBxxkqmZJJOvBfr9Is-68" value="- ReferenceTrans" style="text;align=left;verticalAlign=top;spacingLeft=4;spacingRight=4;overflow=hidden;rotatable=0;points=[[0,0.5],[1,0.5]];portConstraint=eastwest;rounded=0;shadow=0;html=0;fillColor=default;textShadow=0;fontColor=default;" vertex="1" parent="nRTBxxkqmZJJOvBfr9Is-62">
          <mxGeometry y="156" width="143" height="26" as="geometry" />
        </mxCell>
        <mxCell id="nRTBxxkqmZJJOvBfr9Is-92" value="" style="group" vertex="1" connectable="0" parent="WIyWlLk6GJQsqaUBKTNV-1">
          <mxGeometry x="848" y="34" width="303" height="564" as="geometry" />
        </mxCell>
        <mxCell id="nRTBxxkqmZJJOvBfr9Is-89" style="edgeStyle=orthogonalEdgeStyle;rounded=0;orthogonalLoop=1;jettySize=auto;html=1;endArrow=block;endFill=0;" edge="1" parent="nRTBxxkqmZJJOvBfr9Is-92" source="nRTBxxkqmZJJOvBfr9Is-18">
          <mxGeometry relative="1" as="geometry">
            <mxPoint x="111" y="396" as="targetPoint" />
          </mxGeometry>
        </mxCell>
        <mxCell id="nRTBxxkqmZJJOvBfr9Is-18" value="SiteTouristiques" style="swimlane;fontStyle=2;align=center;verticalAlign=top;childLayout=stackLayout;horizontal=1;startSize=26;horizontalStack=0;resizeParent=1;resizeLast=0;collapsible=1;marginBottom=0;rounded=0;shadow=0;strokeWidth=1;" vertex="1" parent="nRTBxxkqmZJJOvBfr9Is-92">
          <mxGeometry y="444" width="130" height="120" as="geometry">
            <mxRectangle x="230" y="140" width="160" height="26" as="alternateBounds" />
          </mxGeometry>
        </mxCell>
        <mxCell id="nRTBxxkqmZJJOvBfr9Is-19" value="# ID_Site" style="text;align=left;verticalAlign=top;spacingLeft=4;spacingRight=4;overflow=hidden;rotatable=0;points=[[0,0.5],[1,0.5]];portConstraint=eastwest;" vertex="1" parent="nRTBxxkqmZJJOvBfr9Is-18">
          <mxGeometry y="26" width="130" height="26" as="geometry" />
        </mxCell>
        <mxCell id="nRTBxxkqmZJJOvBfr9Is-29" value="#DescriptionLieu" style="text;align=left;verticalAlign=top;spacingLeft=4;spacingRight=4;overflow=hidden;rotatable=0;points=[[0,0.5],[1,0.5]];portConstraint=eastwest;rounded=0;shadow=0;html=0;fillColor=default;textShadow=0;fontColor=default;" vertex="1" parent="nRTBxxkqmZJJOvBfr9Is-18">
          <mxGeometry y="52" width="130" height="26" as="geometry" />
        </mxCell>
        <mxCell id="nRTBxxkqmZJJOvBfr9Is-69" value="" style="group" vertex="1" connectable="0" parent="nRTBxxkqmZJJOvBfr9Is-92">
          <mxGeometry x="173" y="429" width="130" height="120" as="geometry" />
        </mxCell>
        <mxCell id="nRTBxxkqmZJJOvBfr9Is-90" style="edgeStyle=orthogonalEdgeStyle;rounded=0;orthogonalLoop=1;jettySize=auto;html=1;exitX=0.25;exitY=0;exitDx=0;exitDy=0;endArrow=block;endFill=0;" edge="1" parent="nRTBxxkqmZJJOvBfr9Is-69" source="nRTBxxkqmZJJOvBfr9Is-33">
          <mxGeometry relative="1" as="geometry">
            <mxPoint x="-32.71016261888576" y="-33.40128359587288" as="targetPoint" />
          </mxGeometry>
        </mxCell>
        <mxCell id="nRTBxxkqmZJJOvBfr9Is-33" value="EvenementCulturel" style="swimlane;fontStyle=2;align=center;verticalAlign=top;childLayout=stackLayout;horizontal=1;startSize=26;horizontalStack=0;resizeParent=1;resizeLast=0;collapsible=1;marginBottom=0;rounded=0;shadow=0;strokeWidth=1;container=0;" vertex="1" parent="nRTBxxkqmZJJOvBfr9Is-69">
          <mxGeometry x="-4" y="12" width="130" height="120" as="geometry">
            <mxRectangle x="230" y="140" width="160" height="26" as="alternateBounds" />
          </mxGeometry>
        </mxCell>
        <mxCell id="nRTBxxkqmZJJOvBfr9Is-87" value="# ID_Evenement" style="text;align=left;verticalAlign=top;spacingLeft=4;spacingRight=4;overflow=hidden;rotatable=0;points=[[0,0.5],[1,0.5]];portConstraint=eastwest;" vertex="1" parent="nRTBxxkqmZJJOvBfr9Is-33">
          <mxGeometry y="26" width="130" height="22.285714285714285" as="geometry" />
        </mxCell>
        <mxCell id="nRTBxxkqmZJJOvBfr9Is-75" value="Visite" style="swimlane;fontStyle=2;align=center;verticalAlign=top;childLayout=stackLayout;horizontal=1;startSize=26;horizontalStack=0;resizeParent=1;resizeLast=0;collapsible=1;marginBottom=0;rounded=0;shadow=0;strokeWidth=1;" vertex="1" parent="nRTBxxkqmZJJOvBfr9Is-92">
          <mxGeometry x="69" width="130" height="399" as="geometry">
            <mxRectangle x="230" y="140" width="160" height="26" as="alternateBounds" />
          </mxGeometry>
        </mxCell>
        <mxCell id="nRTBxxkqmZJJOvBfr9Is-76" value="# ID_Visite" style="text;align=left;verticalAlign=top;spacingLeft=4;spacingRight=4;overflow=hidden;rotatable=0;points=[[0,0.5],[1,0.5]];portConstraint=eastwest;" vertex="1" parent="nRTBxxkqmZJJOvBfr9Is-75">
          <mxGeometry y="26" width="130" height="26" as="geometry" />
        </mxCell>
        <mxCell id="nRTBxxkqmZJJOvBfr9Is-86" value="#CategorieVisite" style="text;align=left;verticalAlign=top;spacingLeft=4;spacingRight=4;overflow=hidden;rotatable=0;points=[[0,0.5],[1,0.5]];portConstraint=eastwest;rounded=0;shadow=0;html=0;fillColor=default;textShadow=0;fontColor=default;" vertex="1" parent="nRTBxxkqmZJJOvBfr9Is-75">
          <mxGeometry y="52" width="130" height="26" as="geometry" />
        </mxCell>
        <mxCell id="nRTBxxkqmZJJOvBfr9Is-77" value="# TitreVisite" style="text;align=left;verticalAlign=top;spacingLeft=4;spacingRight=4;overflow=hidden;rotatable=0;points=[[0,0.5],[1,0.5]];portConstraint=eastwest;rounded=0;shadow=0;html=0;" vertex="1" parent="nRTBxxkqmZJJOvBfr9Is-75">
          <mxGeometry y="78" width="130" height="26" as="geometry" />
        </mxCell>
        <mxCell id="nRTBxxkqmZJJOvBfr9Is-78" value="# DateVisite" style="text;align=left;verticalAlign=top;spacingLeft=4;spacingRight=4;overflow=hidden;rotatable=0;points=[[0,0.5],[1,0.5]];portConstraint=eastwest;rounded=0;shadow=0;html=0;fillColor=default;textShadow=0;fontColor=default;" vertex="1" parent="nRTBxxkqmZJJOvBfr9Is-75">
          <mxGeometry y="104" width="130" height="26" as="geometry" />
        </mxCell>
        <mxCell id="nRTBxxkqmZJJOvBfr9Is-79" value="#HeureVisite" style="text;align=left;verticalAlign=top;spacingLeft=4;spacingRight=4;overflow=hidden;rotatable=0;points=[[0,0.5],[1,0.5]];portConstraint=eastwest;rounded=0;shadow=0;html=0;fillColor=default;textShadow=0;fontColor=default;" vertex="1" parent="nRTBxxkqmZJJOvBfr9Is-75">
          <mxGeometry y="130" width="130" height="26" as="geometry" />
        </mxCell>
        <mxCell id="nRTBxxkqmZJJOvBfr9Is-80" value="#Prix" style="text;align=left;verticalAlign=top;spacingLeft=4;spacingRight=4;overflow=hidden;rotatable=0;points=[[0,0.5],[1,0.5]];portConstraint=eastwest;rounded=0;shadow=0;html=0;fillColor=default;textShadow=0;fontColor=default;" vertex="1" parent="nRTBxxkqmZJJOvBfr9Is-75">
          <mxGeometry y="156" width="130" height="26" as="geometry" />
        </mxCell>
        <mxCell id="nRTBxxkqmZJJOvBfr9Is-81" value="#Deroulement" style="text;align=left;verticalAlign=top;spacingLeft=4;spacingRight=4;overflow=hidden;rotatable=0;points=[[0,0.5],[1,0.5]];portConstraint=eastwest;rounded=0;shadow=0;html=0;fillColor=default;textShadow=0;fontColor=default;" vertex="1" parent="nRTBxxkqmZJJOvBfr9Is-75">
          <mxGeometry y="182" width="130" height="26" as="geometry" />
        </mxCell>
        <mxCell id="nRTBxxkqmZJJOvBfr9Is-82" value="#TypeUtilisateur" style="text;align=left;verticalAlign=top;spacingLeft=4;spacingRight=4;overflow=hidden;rotatable=0;points=[[0,0.5],[1,0.5]];portConstraint=eastwest;rounded=0;shadow=0;html=0;fillColor=default;textShadow=0;fontColor=default;" vertex="1" parent="nRTBxxkqmZJJOvBfr9Is-75">
          <mxGeometry y="208" width="130" height="26" as="geometry" />
        </mxCell>
        <mxCell id="nRTBxxkqmZJJOvBfr9Is-83" value="#Image1" style="text;align=left;verticalAlign=top;spacingLeft=4;spacingRight=4;overflow=hidden;rotatable=0;points=[[0,0.5],[1,0.5]];portConstraint=eastwest;rounded=0;shadow=0;html=0;fillColor=default;textShadow=0;fontColor=default;" vertex="1" parent="nRTBxxkqmZJJOvBfr9Is-75">
          <mxGeometry y="234" width="130" height="26" as="geometry" />
        </mxCell>
        <mxCell id="nRTBxxkqmZJJOvBfr9Is-85" value="#Image3" style="text;align=left;verticalAlign=top;spacingLeft=4;spacingRight=4;overflow=hidden;rotatable=0;points=[[0,0.5],[1,0.5]];portConstraint=eastwest;rounded=0;shadow=0;html=0;fillColor=default;textShadow=0;fontColor=default;" vertex="1" parent="nRTBxxkqmZJJOvBfr9Is-75">
          <mxGeometry y="260" width="130" height="26" as="geometry" />
        </mxCell>
        <mxCell id="nRTBxxkqmZJJOvBfr9Is-84" value="#Image2" style="text;align=left;verticalAlign=top;spacingLeft=4;spacingRight=4;overflow=hidden;rotatable=0;points=[[0,0.5],[1,0.5]];portConstraint=eastwest;rounded=0;shadow=0;html=0;fillColor=default;textShadow=0;fontColor=default;" vertex="1" parent="nRTBxxkqmZJJOvBfr9Is-75">
          <mxGeometry y="286" width="130" height="26" as="geometry" />
        </mxCell>
        <mxCell id="nRTBxxkqmZJJOvBfr9Is-31" value="#PlaceDisponible" style="text;align=left;verticalAlign=top;spacingLeft=4;spacingRight=4;overflow=hidden;rotatable=0;points=[[0,0.5],[1,0.5]];portConstraint=eastwest;rounded=0;shadow=0;html=0;fillColor=default;textShadow=0;fontColor=default;" vertex="1" parent="nRTBxxkqmZJJOvBfr9Is-75">
          <mxGeometry y="312" width="130" height="26" as="geometry" />
        </mxCell>
        <mxCell id="nRTBxxkqmZJJOvBfr9Is-32" value="#Statut" style="text;align=left;verticalAlign=top;spacingLeft=4;spacingRight=4;overflow=hidden;rotatable=0;points=[[0,0.5],[1,0.5]];portConstraint=eastwest;rounded=0;shadow=0;html=0;fillColor=default;textShadow=0;fontColor=default;" vertex="1" parent="nRTBxxkqmZJJOvBfr9Is-75">
          <mxGeometry y="338" width="130" height="26" as="geometry" />
        </mxCell>
        <mxCell id="nRTBxxkqmZJJOvBfr9Is-94" value="" style="line;strokeWidth=1;fillColor=none;align=left;verticalAlign=middle;spacingTop=-1;spacingLeft=3;spacingRight=3;rotatable=0;labelPosition=right;points=[];portConstraint=eastwest;strokeColor=inherit;" vertex="1" parent="WIyWlLk6GJQsqaUBKTNV-1">
          <mxGeometry x="368" y="88" width="218" height="8" as="geometry" />
        </mxCell>
        <mxCell id="nRTBxxkqmZJJOvBfr9Is-95" value="" style="endArrow=open;html=1;endSize=12;startArrow=diamondThin;startSize=14;startFill=1;edgeStyle=orthogonalEdgeStyle;align=left;verticalAlign=bottom;rounded=0;entryX=0.5;entryY=0;entryDx=0;entryDy=0;" edge="1" parent="WIyWlLk6GJQsqaUBKTNV-1" target="nRTBxxkqmZJJOvBfr9Is-62">
          <mxGeometry x="-1" y="3" relative="1" as="geometry">
            <mxPoint x="665" y="272" as="sourcePoint" />
            <mxPoint x="616" y="315" as="targetPoint" />
          </mxGeometry>
        </mxCell>
        <mxCell id="nRTBxxkqmZJJOvBfr9Is-97" style="edgeStyle=orthogonalEdgeStyle;rounded=0;orthogonalLoop=1;jettySize=auto;html=1;entryX=0.043;entryY=0.029;entryDx=0;entryDy=0;entryPerimeter=0;endArrow=none;startFill=0;" edge="1" parent="WIyWlLk6GJQsqaUBKTNV-1">
          <mxGeometry relative="1" as="geometry">
            <mxPoint x="387.5" y="560" as="sourcePoint" />
            <mxPoint x="848.5900000000001" y="503.75400000000013" as="targetPoint" />
            <Array as="points">
              <mxPoint x="388" y="626" />
              <mxPoint x="827" y="626" />
              <mxPoint x="827" y="506" />
              <mxPoint x="849" y="506" />
            </Array>
          </mxGeometry>
        </mxCell>
        <mxCell id="nRTBxxkqmZJJOvBfr9Is-100" value="" style="endArrow=none;html=1;endSize=12;startArrow=diamondThin;startSize=14;startFill=1;edgeStyle=orthogonalEdgeStyle;align=left;verticalAlign=bottom;rounded=0;exitX=0.017;exitY=-0.162;exitDx=0;exitDy=0;exitPerimeter=0;entryX=0.994;entryY=0.133;entryDx=0;entryDy=0;entryPerimeter=0;" edge="1" parent="WIyWlLk6GJQsqaUBKTNV-1" source="nRTBxxkqmZJJOvBfr9Is-76" target="nRTBxxkqmZJJOvBfr9Is-49">
          <mxGeometry x="-1" y="3" relative="1" as="geometry">
            <mxPoint x="456" y="315" as="sourcePoint" />
            <mxPoint x="616" y="315" as="targetPoint" />
          </mxGeometry>
        </mxCell>
        <mxCell id="nRTBxxkqmZJJOvBfr9Is-102" style="edgeStyle=orthogonalEdgeStyle;rounded=0;orthogonalLoop=1;jettySize=auto;html=1;entryX=0.064;entryY=0.05;entryDx=0;entryDy=0;entryPerimeter=0;endArrow=none;startFill=0;" edge="1" parent="WIyWlLk6GJQsqaUBKTNV-1" source="nRTBxxkqmZJJOvBfr9Is-56" target="zkfFHV4jXpPFQw0GAbJ--1">
          <mxGeometry relative="1" as="geometry" />
        </mxCell>
      </root>
    </mxGraphModel>
  </diagram>
</mxfile>
